<svg width="696" height="1012" viewBox="0 0 696 1012" fill="none" xmlns="http://www.w3.org/2000/svg">
<path fill-rule="evenodd" clip-rule="evenodd" d="M461.336 196.978C497.469 134.396 476.025 54.3725 413.444 18.2406C350.861 -17.8914 270.838 3.5517 234.708 66.1336C216.263 98.0795 212.822 134.57 222.197 167.448L222.044 167.709C233.922 210.331 229.316 257.514 205.447 298.86C181.575 340.206 143.016 367.785 100.163 378.811L100.044 379.02C94.5996 380.388 89.1996 382.118 83.8801 384.223C80.8912 385.404 77.9274 386.704 74.994 388.124C62.2162 394.273 50.3635 402.528 40.0079 412.739C28.9024 423.663 20.0246 436.329 13.5579 450.035C-2.17265 483.198 -2.74487 520.202 9.5718 552.582C17.7329 574.032 31.5468 593.452 50.3579 608.384C53.4162 610.816 56.5718 613.099 59.8107 615.232C63.0746 617.382 66.4274 619.378 69.8551 621.217C79.6079 626.471 89.7524 630.361 100.061 632.946L100.177 633.149C143.027 644.175 181.586 671.754 205.458 713.1C229.327 754.446 233.933 801.628 222.058 844.252L222.205 844.51C212.833 877.385 216.275 913.874 234.719 945.818C270.85 1008.4 350.872 1029.84 413.455 993.71C476.036 957.578 497.48 877.556 461.347 814.974C442.902 783.025 413.019 761.799 379.858 753.48L379.711 753.23C336.861 742.203 298.302 714.624 274.43 673.278C272.247 669.496 270.225 665.666 268.361 661.793C266.661 658.259 265.091 654.691 263.655 651.095C242.905 607.091 231.294 557.856 231.294 505.888C231.294 453.559 243.066 404.004 264.086 359.77C265.552 356.171 267.152 352.602 268.886 349.067C270.6 345.57 272.444 342.106 274.419 338.682C298.291 297.336 336.85 269.757 379.7 258.731L379.852 258.47C413.011 250.15 442.891 228.924 461.336 196.978ZM564.208 636.824C636.472 636.824 695.052 578.243 695.052 505.979C695.052 433.716 636.472 375.135 564.208 375.135C491.944 375.135 433.363 433.716 433.363 505.979C433.363 578.243 491.944 636.824 564.208 636.824Z" fill="#5253FF"/>
</svg>
